<?xml version="1.0" encoding="utf-8" ?>
<svg xmlns="http://www.w3.org/2000/svg" xmlns:xlink="http://www.w3.org/1999/xlink" width="1024" height="1024">
<path fill="#28234F" d="M611.272 258.209Q613.426 258.128 615.58 258.205Q617.734 258.282 619.877 258.516Q622.019 258.751 624.139 259.143Q626.259 259.534 628.344 260.08Q630.429 260.626 632.469 261.323Q634.508 262.021 636.491 262.866Q638.474 263.711 640.39 264.699Q642.305 265.688 644.143 266.814C657.053 274.609 666.708 288.263 670.16 302.92C677.891 335.748 655.354 360.586 636.379 384.166C632.2 389.36 627.483 394.588 624.051 400.301C623.948 400.471 623.85 400.644 623.75 400.816C624.91 407.685 625.989 414.242 624.742 421.185C623.009 430.825 617.901 439.611 609.714 445.141C597.248 453.563 584.276 451.92 570.331 449.154C568.177 451.832 565.809 454.367 563.529 456.941C572.546 459.803 581.651 461.783 591.167 461.121C604.2 460.215 616.303 454.675 624.913 444.757C632.17 436.397 636.999 423.303 637.205 412.279C637.269 408.847 636.416 405.456 636.225 402.039C636.01 398.179 636.69 394.461 639.453 391.576C641.795 389.131 645.421 387.518 648.811 387.485Q649.448 387.485 650.082 387.551Q650.715 387.616 651.339 387.747Q651.962 387.877 652.569 388.07Q653.176 388.264 653.76 388.519Q654.344 388.773 654.898 389.086Q655.453 389.4 655.973 389.768Q656.492 390.137 656.971 390.556Q657.45 390.976 657.884 391.443C660.598 394.33 661.788 398.196 661.511 402.113C661.287 405.289 660.06 408.473 657.564 410.548C654.336 413.23 650.508 413.56 646.499 413.246L645.787 413.186C644.951 419.465 643.819 425.637 641.731 431.635C636.799 445.808 627.289 457.321 613.684 463.854C594.962 472.844 576.146 469.881 557.3 463.231C531.461 490.935 504.507 518.412 476.079 543.459C464.305 553.833 451.926 563.641 439.677 573.45C435.998 576.396 426.206 585.586 422.064 586.176C420.38 585.604 419.218 584.757 417.807 583.69Q412.445 588.244 406.985 592.68C404.218 594.936 402.39 597.113 398.577 596.694L398.07 596.633C392.113 602.973 387.238 610.946 382.065 617.969C401.602 617.55 420.996 616.915 440.46 615.023C458.59 613.261 476.727 610.37 494.706 607.445C528.409 601.963 561.89 595.103 595.613 589.611C655.959 579.783 726.79 569.807 782.675 601.148C787.838 604.044 803.108 613.161 804.771 619.013C804.697 620.218 804.437 620.935 803.662 621.847C802.795 622.867 801.318 623.538 799.974 623.214C797.139 622.529 787.387 614.287 784.36 612.309C779.488 609.125 774.427 606.126 769.103 603.76C738.974 590.369 705.302 586.865 672.624 588.912C649.214 589.733 626.188 593.225 603.088 596.81C538.293 606.866 474.059 622.848 408.327 625.519C401.163 625.81 380.866 627.032 374.673 625.971C372.685 625.631 371.429 625.072 370.213 623.385C369.587 620.719 371.257 618.81 372.727 616.757C378.452 608.762 385.111 601.257 390.335 592.937C391.942 590.377 390.001 589.503 390.968 586.988C392.625 582.679 400.369 572.272 400.821 569.191C401.043 567.684 399.83 566.028 400.009 564.426C400.379 561.1 403.612 555.989 405.022 552.872C393.417 547.344 380.767 543.362 367.918 542.231C352.895 540.909 336.469 543.292 324.68 553.403C318.059 559.081 313.117 566.845 312.627 575.733C311.75 591.635 324.171 602.479 336.283 610.422C338.423 611.827 342.837 613.978 344.201 616.112C344.917 617.233 344.919 618.022 344.623 619.305C344.318 620.632 343.58 621.195 342.523 621.916C341.191 622.121 340.251 622.04 339.001 621.581C335.685 620.362 332.664 618.018 329.794 616.011C320.48 609.5 312.404 603.061 307.653 592.401C303.674 583.472 303.215 573.545 306.756 564.403C311.154 553.046 320.427 544.383 331.452 539.51C356.802 528.306 383.604 535.367 408.128 544.83C414.853 530.512 420.829 516.075 428.688 502.269C436.965 487.727 447.476 474.196 457.02 460.466C466.42 446.943 475.217 432.983 484.781 419.585C481.394 416.148 478.334 412.477 475.941 408.269C469.066 396.175 467.508 379.711 471.318 366.397C476.183 349.395 488.936 338.181 503.95 329.955C501.933 327.448 500.759 325.277 500.501 322.013C500.238 318.679 501.425 315.479 503.72 313.059Q504.177 312.58 504.68 312.15Q505.182 311.72 505.726 311.342Q506.269 310.965 506.848 310.644Q507.427 310.323 508.035 310.063Q508.643 309.802 509.274 309.604Q509.906 309.406 510.554 309.272Q511.202 309.139 511.86 309.071Q512.518 309.004 513.18 309.003C516.627 308.99 520.13 310.283 522.57 312.759C524.874 315.098 526.363 318.701 526.323 321.991C526.293 324.423 525.476 326.832 524.209 328.892C520.19 335.431 514.603 333.24 508.911 336.197C503.108 339.21 496.559 343.94 491.796 348.436Q490.976 349.2 490.196 350.003Q489.415 350.807 488.674 351.647Q487.934 352.488 487.237 353.365Q486.539 354.242 485.885 355.152Q485.232 356.062 484.624 357.003Q484.017 357.944 483.456 358.914Q482.896 359.884 482.384 360.881Q481.872 361.877 481.41 362.898Q480.949 363.919 480.538 364.961Q480.127 366.003 479.768 367.065Q479.41 368.126 479.104 369.204Q478.798 370.282 478.546 371.373Q478.294 372.465 478.096 373.567Q477.898 374.67 477.755 375.781Q477.612 376.892 477.524 378.009Q477.436 379.126 477.403 380.246C477.089 392.493 481.402 403.548 489.793 412.386C492.076 409.414 493.993 406.003 496.009 402.836C494.806 401.691 493.661 400.493 492.67 399.156C488.028 392.892 486.558 383.73 487.661 376.13C489.076 366.377 495.497 357.327 503.386 351.629C508.712 347.783 515.421 345.279 522.015 346.307C531.061 332.241 540.967 318.592 550.711 304.994C556.629 296.734 562.351 287.93 569.028 280.29C580.153 267.562 594.279 259.38 611.272 258.209Z"/>
<path fill="#EECCA3" d="M643.97 401.227C646.712 401.746 651.102 401.473 653.453 402.486C652.846 403.276 652.219 404.135 651.382 404.694C650.188 405.491 648.753 405.872 647.359 405.367C645.363 404.644 644.72 403.019 643.97"/>
<path fill="#EECCA3" d="M643.97 401.227C644.543 399.19 645.149 397.476 647.151 396.447C648.263 395.876 649.637 395.724 650.816 396.182C652.107 396.684 652.785 397.69 653.24 398.943C653.636 400.035 653.514 401.346 653.453 402.486C651.102 401.473 646.712 401.746 643.97 401.227Z"/>
<path fill="#EECCA3" d="M408.466 573.773C410.082 574.627 411.311 576.148 412.564 577.462C409.26 580.611 405.599 583.301 402.351 586.546C401.59 587.214 401.762 587.291 400.671 587.315C400.46 583.63 406.205 576.688 408.466 573.773Z"/>
<path fill="#EECCA3" d="M511.633 316.928C511.904 316.934 512.175 316.934 512.446 316.945C514.148 317.017 516.04 317.82 517.04 319.26C517.839 320.41 518.138 321.573 517.826 322.963C517.47 324.549 516.333 325.403 515.134 326.344C513.172 326.142 511.021 325.613 509.671 324.038C508.876 323.11 508.447 321.783 508.728 320.57C509.119 318.88 510.359 317.979 511.633 316.928Z"/>
<path fill="#FBF5E7" d="M441.67 498.289C441.796 498.314 441.925 498.332 442.05 498.364C458.262 502.513 471.837 513.685 480.304 527.925C479.169 529.187 477.893 530.324 476.655 531.485C463.882 517.541 455.782 510.113 437.43 504.018L441.67 498.289Z"/>
<path fill="#FBF5E7" d="M513.363 354.944L513.763 355.68C512.496 357.947 510.841 360.457 509.964 362.884C508.541 366.817 510.641 370.297 512.459 373.636C510.117 379.431 504.777 392.055 500.085 395.776C496.365 390.089 494.617 382.899 495.986 376.196C498.059 366.046 505.16 360.224 513.363 354.944Z"/>
<path fill="#FBF5E7" d="M616.283 409.321C617.029 411.437 616.988 414.103 616.876 416.345C616.492 423.981 612.745 431.067 607.041 436.085C600.016 442.265 592.132 443.679 583.121 443.19L582.56 443.01L582.325 442.453C585.874 440.018 588.938 436.714 592.184 433.885C597.532 429.224 603.39 424.939 608.201 419.707C611.159 416.49 613.634 412.795 616.283 409.321Z"/>
<path fill="#EECCA3" d="M519.5 378.736C542.684 388.065 570.683 408.028 585.564 428.018C583.35 430.615 580.789 432.924 578.328 435.286L576.264 436.728C574.047 436.212 563.63 424.089 560.792 421.555C546.687 408.961 530.441 398.878 513.959 389.728C516.106 386.245 517.749 382.43 519.5 378.736Z"/>
<path fill="#EECCA3" d="M523.321 356.978C554.341 368.441 582.753 387.971 601.004 415.929L593.776 421.83C593.076 422.301 592.999 422.203 592.196 422.221C587.579 418.738 583.68 413.423 579.38 409.393C567.139 397.921 554.153 387.643 539.43 379.531C534.802 376.98 519.948 371.159 518.111 367.522C517.729 363.726 521.241 359.991 523.321 356.978Z"/>
<path fill="#FBF5E7" d="M432.642 511.386C448.59 516.036 460.593 524.462 470.829 537.636Q453.863 551.14 437.177 564.988L422.383 577.062C418.264 572.082 414.635 568.035 409.048 564.637C416.091 546.457 424.27 528.976 432.642 511.386Z"/>
<path fill="#28234F" d="M452.051 525.277C456.17 527.337 459.858 531.611 463.062 534.851C458.488 539.131 453.381 542.984 448.618 547.069Q437.382 556.836 426.404 566.892L422.2 570.915C420.738 569.81 419.358 568.589 417.957 567.408C423.151 560.108 429.302 553.469 435.054 546.608C440.892 539.644 446.446 532.429 452.051 525.277Z"/>
<path fill="#FBF5E7" d="M509.305 396.808C529.637 406.918 553.47 423.021 568.056 440.539L487.539 521.802C486.438 520.536 485.591 519.904 485.276 518.235C492.399 508.713 504.136 498.183 512.631 489.401C526.129 475.449 539.146 461.074 552.34 446.839C554.997 444.073 557.809 441.438 560.559 438.764C550.8 428.916 540.166 419.507 528.406 412.083C519.488 423.398 511.633 435.503 503.375 447.297L465.636 500.176C459.246 495.992 452.949 493.169 445.58 491.17C451.745 480.954 459.274 471.139 466.042 461.278Q488.216 429.407 509.305 396.808Z"/>
<path fill="#FBF5E7" d="M612.292 266.213C614.42 266.262 616.568 266.299 618.687 266.507Q619.89 266.628 621.085 266.809Q622.281 266.989 623.466 267.229Q624.651 267.468 625.823 267.765Q626.995 268.062 628.151 268.417Q629.306 268.772 630.443 269.183Q631.58 269.594 632.696 270.06Q633.811 270.527 634.902 271.048Q635.993 271.569 637.057 272.143Q638.121 272.717 639.155 273.343Q640.19 273.968 641.192 274.644Q642.195 275.32 643.162 276.045Q644.13 276.769 645.061 277.541Q645.992 278.312 646.884 279.128Q647.776 279.944 648.627 280.803Q649.477 281.662 650.285 282.562Q651.092 283.462 651.854 284.401C661.691 296.482 664.481 310.14 662.888 325.366C656.051 316.761 648.996 307.959 640.44 300.971C638.334 299.251 635.734 297.058 632.878 297.34C631.546 298.081 631.063 298.649 630.22 299.863C629.999 301.484 630.015 302.414 630.993 303.785C632.933 306.505 636.313 308.476 638.725 310.819C646.466 318.337 654.569 326.798 660.079 336.09C658.67 339.385 656.898 342.425 654.841 345.35C649.055 338.74 629.165 313.997 621.409 312.303C620.187 312.037 619.642 312.259 618.632 312.908C618.241 313.607 617.897 314.235 617.797 315.045C617.618 316.5 617.757 317.698 618.67 318.899C622.045 323.34 627.145 327.177 631.12 331.166C638.028 338.095 644.075 345.511 649.733 353.483C647.777 356.72 645.645 359.787 643.445 362.861C635.804 351.9 624.559 337.781 613.475 330.179C611.961 329.141 609.93 327.706 608.008 328.362C606.694 328.81 606.018 329.72 605.33 330.845C605.032 332.726 605.489 333.852 606.641 335.295C609.944 339.433 615.044 342.933 618.909 346.698C626.071 353.675 632.149 361.291 637.886 369.441L631.256 377.264C624.27 367.956 612.716 353.683 603.618 346.929C601.062 345.031 597.866 342.968 594.561 343.485C594.02 343.989 593.67 344.103 593.553 344.881C593.274 346.732 594.03 349.223 595.195 350.681C598.086 354.301 602.564 357.195 605.907 360.516C613.386 367.945 619.599 375.795 625.705 384.354L619.506 391.504C613.982 383.607 596.14 362.802 588.027 359.088C586.28 358.288 584.499 359.181 582.838 359.802C582.68 360.705 582.373 361.847 582.426 362.754C582.527 364.47 583.895 365.57 585.051 366.701C590.168 371.706 595.86 376.189 600.641 381.533C605.273 386.71 609.281 393.351 614.495 397.889C611.896 401.627 609.075 405.235 606.351 408.885C586.348 379.764 560.673 364.767 529.623 349.986C531.904 346.001 534.857 342.369 537.697 338.779C541.626 339.951 545.636 341.477 549.334 343.252C553.197 345.106 561.685 351.696 565.571 351.575C567.192 351.525 568.054 350.374 568.964 349.232C569.105 348.307 569.296 347.891 568.965 346.983C566.987 341.556 548.218 333.599 542.388 330.943C544.183 328.113 546.276 325.415 548.232 322.69Q556.319 326.014 564.037 330.124C568.268 332.394 572.684 335.462 577.251 336.916C578.542 336.73 579.983 335.859 580.725 334.743C581.343 333.814 581.395 332.933 580.969 331.902C578.735 326.489 558.705 318.158 552.721 315.883Q555.865 311.888 559.093 307.962C563.234 309.077 567.181 310.582 571.07 312.392C574.883 314.166 586.297 321.787 589.715 321.346C590.927 321.189 592.081 320.558 592.775 319.53C593.499 318.458 593.577 317.529 593.347 316.308C588.418 310.171 571.536 303.659 564.028 300.942C565.873 298.029 568.049 295.281 570.096 292.503C575.221 294.198 580.279 296.249 585.215 298.433C589.737 300.435 596.954 305.287 601.444 305.772C602.852 305.34 603.767 304.72 604.572 303.481C605.306 302.352 605.508 301.369 605.259 300.045C598.761 293.425 583.862 288.731 574.941 286.013C577.118 283.238 579.447 280.798 581.981 278.348C588.574 280.118 595.112 282.049 601.349 284.856C604.257 286.165 607.158 288.549 610.144 289.421C611.468 289.808 613.017 289.8 614.347 289.454C615.79 289.077 616.683 288.401 617.44 287.102C617.539 286.349 617.615 285.759 617.281 285.038C614.646 279.348 597.16 274.344 591.121 272.326C597.764 268.138 604.557 266.719 612.292 266.213Z"/>
</svg>